%
M48
M72
T01C0.0270
T02C0.0315
T03C0.0320
T04C0.0400
T05C0.0402
T06C0.0440
T07C0.0520
T08C0.0590
T09C0.0740
T10C0.0984
T11C0.1378
T12C0.1476
%
T01
X23180Y11680
X38680Y13180
X50180Y16680
X50680Y15180
X61680Y11680
X53680Y8180
X52680Y8180
X55680Y4180
X53180Y3180
X52180Y3680
X51180Y3680
X50180Y3180
X51680Y1649
X58180Y2680
T02
X49180Y5680
X48180Y5680
X44180Y5680
X43180Y5680
X41180Y5680
X40180Y5680
X36180Y5680
X35180Y5680
X33180Y5680
X32180Y5680
X28180Y5680
X27180Y5680
X27180Y8680
X28180Y8680
X32180Y8680
X33180Y8680
X35180Y8680
X36180Y8680
X40180Y8680
X41180Y8680
X43180Y8680
X44180Y8680
X48180Y8680
X49180Y8680
X49180Y11680
X48180Y11680
X44180Y11680
X43180Y11680
X41180Y11680
X40180Y11680
X36180Y11680
X35180Y11680
X33180Y11680
X32180Y11680
X28180Y11680
X27180Y11680
X27180Y14680
X28180Y14680
X32180Y14680
X33180Y14680
X35180Y14680
X36180Y14680
X40180Y14680
X41180Y14680
X43180Y14680
X44180Y14680
X48180Y14680
X49180Y14680
X49180Y17680
X48180Y17680
X44180Y17680
X43180Y17680
X41180Y17680
X40180Y17680
X36180Y17680
X35180Y17680
X33180Y17680
X32180Y17680
X28180Y17680
X27180Y17680
X27180Y20680
X28180Y20680
X32180Y20680
X33180Y20680
X35180Y20680
X36180Y20680
X40180Y20680
X41180Y20680
X43180Y20680
X44180Y20680
X48180Y20680
X49180Y20680
X41180Y22680
X39680Y24180
X37180Y22680
X35680Y22680
X35680Y24180
X35680Y25680
X39680Y25680
X31680Y22680
X18680Y18180
X18680Y16680
X18680Y15180
X18680Y13680
X18680Y12180
X18680Y10680
X18680Y9180
X18680Y7680
X18680Y6180
X18680Y4680
X14680Y4680
X14680Y6180
X14680Y7680
X14680Y9180
X14680Y10680
X14680Y12180
X14680Y13680
X14680Y15180
X14680Y16680
X14680Y18180
X3680Y18180
X2180Y18180
X2180Y22180
X3680Y22180
X6680Y28786
X10680Y28786
X2180Y8967
X2180Y4967
X3343Y4553
X4343Y4553
T03
X5680Y4180
X5680Y3180
X5680Y2180
X5680Y5180
X5680Y6180
X5680Y7180
X5680Y8180
X5680Y9180
X5680Y10180
X3680Y11041
X5680Y11180
X5680Y12180
X5680Y13180
X5680Y14180
X5680Y15180
X5680Y16180
X5680Y17180
X5680Y18180
X5680Y19180
X5680Y20180
X5680Y21180
X11426Y22974
X11680Y21180
X11680Y20180
X11680Y19180
X11680Y18180
X10539Y17660
X11680Y17180
X11680Y16180
X11680Y15180
X13180Y14680
X11680Y14180
X13180Y13680
X11680Y13180
X11680Y12180
X13180Y12180
X13180Y11180
X11680Y11180
X10671Y10692
X11680Y10180
X11680Y9180
X11680Y8180
X11680Y7180
X11680Y6180
X11680Y5180
X13539Y4660
X11680Y4180
X11680Y3180
X13539Y3160
X11680Y2180
X20180Y4680
X20180Y6180
X20180Y7680
X20180Y9180
X20180Y10680
X20180Y12180
X20180Y13680
X20180Y15180
X20180Y16680
X20180Y18180
X24180Y18180
X24180Y16680
X24180Y15180
X24180Y13680
X24180Y12180
X24180Y10680
X26665Y10568
X24180Y9180
X24180Y7680
X24180Y6180
X24180Y4680
X38230Y8918
X49180Y6680
X52843Y5762
X53665Y7180
X53665Y10680
X53665Y14680
X58665Y15680
X53665Y18680
X61165Y19680
X51165Y24180
X49541Y26519
X45680Y22430
X43680Y22430
X38541Y21019
X33856Y24183
X33857Y25483
X33357Y26233
X32857Y25483
X35680Y27180
X39680Y27180
X27549Y19831
X25310Y20491
X24310Y20491
X22254Y20393
X21254Y20393
X19462Y20409
X18462Y20409
X16680Y20430
X15680Y20430
X25680Y24180
X12680Y26680
X11680Y26680
X10680Y26680
X9680Y26680
X8680Y26680
X7680Y26680
X6680Y26680
X5680Y26680
X4680Y26680
X2592Y27018
X2592Y28018
X2180Y16680
X3680Y16680
X3680Y15680
X3680Y14180
X3680Y13180
X3680Y9183
X3680Y7180
X3680Y6180
X10039Y9160
X16167Y13687
X37268Y14896
X61609Y9279
T04
X51930Y15080
X43430Y24180
X43430Y27180
X34680Y29180
X32680Y29180
X51930Y26580
X4282Y25316
X2078Y25316
X2078Y23544
X4282Y23544
T05
X7430Y23680
X8430Y23680
X9430Y23680
X9430Y24680
X8430Y24680
X7430Y24680
T06
X15428Y22733
X16428Y22733
X17428Y22733
X21334Y22733
X22334Y22733
X23334Y22733
X27239Y22733
X28239Y22733
X29239Y22733
X41180Y28930
X45180Y28930
X44180Y16180
X48180Y16180
X40180Y16180
X36180Y16180
X32180Y16180
X28180Y16180
X28180Y10180
X32180Y10180
X36180Y10180
X40180Y10180
X44180Y10180
X48180Y10180
X48180Y4574
X44180Y4574
X40180Y4574
X36180Y4574
X32180Y4574
X28180Y4574
T07
X48430Y22099
X48430Y30958
T08
X44928Y30930
X38432Y30930
T09
X56773Y25680
X59773Y24680
X56773Y23680
X59773Y22680
X56773Y21680
X59773Y20680
X56773Y19680
X59773Y18680
X56773Y17680
X59773Y16680
X56773Y15680
X59773Y14680
X56773Y13680
X59773Y12680
X56773Y11680
X59773Y10680
X56773Y9680
X59773Y8680
X56773Y7680
X59773Y6680
X56773Y5680
X59773Y4680
X59773Y26680
X59773Y28680
T10
X12255Y30601
X5208Y30601
T11
X2649Y2649
X2649Y30208
X61704Y30208
X61704Y2649
T12
X28239Y30277
X22334Y30277
X16428Y30277
M30
