G75*
G70*
%OFA0B0*%
%FSLAX24Y24*%
%IPPOS*%
%LPD*%
%AMOC8*
5,1,8,0,0,1.08239X$1,22.5*
%
%ADD10C,0.0000*%
%ADD11C,0.1457*%
%ADD12C,0.1063*%
%ADD13C,0.0596*%
%ADD14C,0.0591*%
%ADD15C,0.0716*%
%ADD16C,0.1260*%
%ADD17C,0.0596*%
%ADD18C,0.0591*%
%ADD19R,0.0591X0.0591*%
%ADD20R,0.0721X0.0721*%
%ADD21C,0.0721*%
%ADD22C,0.1079*%
%ADD23C,0.0676*%
%ADD24OC8,0.1079*%
%ADD25OC8,0.0596*%
%ADD26C,0.1079*%
%ADD27C,0.0709*%
%ADD28OC8,0.0709*%
%ADD29R,0.0591X0.0787*%
%ADD30C,0.0676*%
%ADD31C,0.0716*%
%ADD32C,0.1555*%
%ADD33R,0.0596X0.0596*%
%ADD34R,0.0866X0.0866*%
%ADD35C,0.0635*%
%ADD36R,0.0635X0.0635*%
%ADD37R,0.0585X0.0585*%
D10*
X000680Y000680D02*
X000680Y032176D01*
X063672Y032176D01*
X063672Y000680D01*
X000680Y000680D01*
X001960Y002649D02*
X001962Y002701D01*
X001968Y002753D01*
X001978Y002804D01*
X001991Y002854D01*
X002009Y002904D01*
X002030Y002951D01*
X002054Y002997D01*
X002083Y003041D01*
X002114Y003083D01*
X002148Y003122D01*
X002185Y003159D01*
X002225Y003192D01*
X002268Y003223D01*
X002312Y003250D01*
X002358Y003274D01*
X002407Y003294D01*
X002456Y003310D01*
X002507Y003323D01*
X002558Y003332D01*
X002610Y003337D01*
X002662Y003338D01*
X002714Y003335D01*
X002766Y003328D01*
X002817Y003317D01*
X002867Y003303D01*
X002916Y003284D01*
X002963Y003262D01*
X003008Y003237D01*
X003052Y003208D01*
X003093Y003176D01*
X003132Y003141D01*
X003167Y003103D01*
X003200Y003062D01*
X003230Y003020D01*
X003256Y002975D01*
X003279Y002928D01*
X003298Y002879D01*
X003314Y002829D01*
X003326Y002779D01*
X003334Y002727D01*
X003338Y002675D01*
X003338Y002623D01*
X003334Y002571D01*
X003326Y002519D01*
X003314Y002469D01*
X003298Y002419D01*
X003279Y002370D01*
X003256Y002323D01*
X003230Y002278D01*
X003200Y002236D01*
X003167Y002195D01*
X003132Y002157D01*
X003093Y002122D01*
X003052Y002090D01*
X003008Y002061D01*
X002963Y002036D01*
X002916Y002014D01*
X002867Y001995D01*
X002817Y001981D01*
X002766Y001970D01*
X002714Y001963D01*
X002662Y001960D01*
X002610Y001961D01*
X002558Y001966D01*
X002507Y001975D01*
X002456Y001988D01*
X002407Y002004D01*
X002358Y002024D01*
X002312Y002048D01*
X002268Y002075D01*
X002225Y002106D01*
X002185Y002139D01*
X002148Y002176D01*
X002114Y002215D01*
X002083Y002257D01*
X002054Y002301D01*
X002030Y002347D01*
X002009Y002394D01*
X001991Y002444D01*
X001978Y002494D01*
X001968Y002545D01*
X001962Y002597D01*
X001960Y002649D01*
X001960Y030208D02*
X001962Y030260D01*
X001968Y030312D01*
X001978Y030363D01*
X001991Y030413D01*
X002009Y030463D01*
X002030Y030510D01*
X002054Y030556D01*
X002083Y030600D01*
X002114Y030642D01*
X002148Y030681D01*
X002185Y030718D01*
X002225Y030751D01*
X002268Y030782D01*
X002312Y030809D01*
X002358Y030833D01*
X002407Y030853D01*
X002456Y030869D01*
X002507Y030882D01*
X002558Y030891D01*
X002610Y030896D01*
X002662Y030897D01*
X002714Y030894D01*
X002766Y030887D01*
X002817Y030876D01*
X002867Y030862D01*
X002916Y030843D01*
X002963Y030821D01*
X003008Y030796D01*
X003052Y030767D01*
X003093Y030735D01*
X003132Y030700D01*
X003167Y030662D01*
X003200Y030621D01*
X003230Y030579D01*
X003256Y030534D01*
X003279Y030487D01*
X003298Y030438D01*
X003314Y030388D01*
X003326Y030338D01*
X003334Y030286D01*
X003338Y030234D01*
X003338Y030182D01*
X003334Y030130D01*
X003326Y030078D01*
X003314Y030028D01*
X003298Y029978D01*
X003279Y029929D01*
X003256Y029882D01*
X003230Y029837D01*
X003200Y029795D01*
X003167Y029754D01*
X003132Y029716D01*
X003093Y029681D01*
X003052Y029649D01*
X003008Y029620D01*
X002963Y029595D01*
X002916Y029573D01*
X002867Y029554D01*
X002817Y029540D01*
X002766Y029529D01*
X002714Y029522D01*
X002662Y029519D01*
X002610Y029520D01*
X002558Y029525D01*
X002507Y029534D01*
X002456Y029547D01*
X002407Y029563D01*
X002358Y029583D01*
X002312Y029607D01*
X002268Y029634D01*
X002225Y029665D01*
X002185Y029698D01*
X002148Y029735D01*
X002114Y029774D01*
X002083Y029816D01*
X002054Y029860D01*
X002030Y029906D01*
X002009Y029953D01*
X001991Y030003D01*
X001978Y030053D01*
X001968Y030104D01*
X001962Y030156D01*
X001960Y030208D01*
X004716Y030601D02*
X004718Y030645D01*
X004724Y030689D01*
X004734Y030732D01*
X004747Y030774D01*
X004765Y030814D01*
X004786Y030853D01*
X004810Y030890D01*
X004837Y030925D01*
X004868Y030957D01*
X004901Y030986D01*
X004937Y031012D01*
X004975Y031034D01*
X005015Y031053D01*
X005056Y031069D01*
X005099Y031081D01*
X005142Y031089D01*
X005186Y031093D01*
X005230Y031093D01*
X005274Y031089D01*
X005317Y031081D01*
X005360Y031069D01*
X005401Y031053D01*
X005441Y031034D01*
X005479Y031012D01*
X005515Y030986D01*
X005548Y030957D01*
X005579Y030925D01*
X005606Y030890D01*
X005630Y030853D01*
X005651Y030814D01*
X005669Y030774D01*
X005682Y030732D01*
X005692Y030689D01*
X005698Y030645D01*
X005700Y030601D01*
X005698Y030557D01*
X005692Y030513D01*
X005682Y030470D01*
X005669Y030428D01*
X005651Y030388D01*
X005630Y030349D01*
X005606Y030312D01*
X005579Y030277D01*
X005548Y030245D01*
X005515Y030216D01*
X005479Y030190D01*
X005441Y030168D01*
X005401Y030149D01*
X005360Y030133D01*
X005317Y030121D01*
X005274Y030113D01*
X005230Y030109D01*
X005186Y030109D01*
X005142Y030113D01*
X005099Y030121D01*
X005056Y030133D01*
X005015Y030149D01*
X004975Y030168D01*
X004937Y030190D01*
X004901Y030216D01*
X004868Y030245D01*
X004837Y030277D01*
X004810Y030312D01*
X004786Y030349D01*
X004765Y030388D01*
X004747Y030428D01*
X004734Y030470D01*
X004724Y030513D01*
X004718Y030557D01*
X004716Y030601D01*
X011763Y030601D02*
X011765Y030645D01*
X011771Y030689D01*
X011781Y030732D01*
X011794Y030774D01*
X011812Y030814D01*
X011833Y030853D01*
X011857Y030890D01*
X011884Y030925D01*
X011915Y030957D01*
X011948Y030986D01*
X011984Y031012D01*
X012022Y031034D01*
X012062Y031053D01*
X012103Y031069D01*
X012146Y031081D01*
X012189Y031089D01*
X012233Y031093D01*
X012277Y031093D01*
X012321Y031089D01*
X012364Y031081D01*
X012407Y031069D01*
X012448Y031053D01*
X012488Y031034D01*
X012526Y031012D01*
X012562Y030986D01*
X012595Y030957D01*
X012626Y030925D01*
X012653Y030890D01*
X012677Y030853D01*
X012698Y030814D01*
X012716Y030774D01*
X012729Y030732D01*
X012739Y030689D01*
X012745Y030645D01*
X012747Y030601D01*
X012745Y030557D01*
X012739Y030513D01*
X012729Y030470D01*
X012716Y030428D01*
X012698Y030388D01*
X012677Y030349D01*
X012653Y030312D01*
X012626Y030277D01*
X012595Y030245D01*
X012562Y030216D01*
X012526Y030190D01*
X012488Y030168D01*
X012448Y030149D01*
X012407Y030133D01*
X012364Y030121D01*
X012321Y030113D01*
X012277Y030109D01*
X012233Y030109D01*
X012189Y030113D01*
X012146Y030121D01*
X012103Y030133D01*
X012062Y030149D01*
X012022Y030168D01*
X011984Y030190D01*
X011948Y030216D01*
X011915Y030245D01*
X011884Y030277D01*
X011857Y030312D01*
X011833Y030349D01*
X011812Y030388D01*
X011794Y030428D01*
X011781Y030470D01*
X011771Y030513D01*
X011765Y030557D01*
X011763Y030601D01*
X015690Y030277D02*
X015692Y030331D01*
X015698Y030384D01*
X015708Y030437D01*
X015721Y030490D01*
X015739Y030541D01*
X015760Y030590D01*
X015784Y030638D01*
X015813Y030684D01*
X015844Y030728D01*
X015878Y030769D01*
X015916Y030808D01*
X015956Y030844D01*
X015999Y030877D01*
X016044Y030907D01*
X016091Y030933D01*
X016139Y030956D01*
X016190Y030975D01*
X016241Y030991D01*
X016294Y031003D01*
X016347Y031011D01*
X016401Y031015D01*
X016455Y031015D01*
X016509Y031011D01*
X016562Y031003D01*
X016615Y030991D01*
X016666Y030975D01*
X016717Y030956D01*
X016765Y030933D01*
X016812Y030907D01*
X016857Y030877D01*
X016900Y030844D01*
X016940Y030808D01*
X016978Y030769D01*
X017012Y030728D01*
X017043Y030684D01*
X017072Y030638D01*
X017096Y030590D01*
X017117Y030541D01*
X017135Y030490D01*
X017148Y030437D01*
X017158Y030384D01*
X017164Y030331D01*
X017166Y030277D01*
X017164Y030223D01*
X017158Y030170D01*
X017148Y030117D01*
X017135Y030064D01*
X017117Y030013D01*
X017096Y029964D01*
X017072Y029916D01*
X017043Y029870D01*
X017012Y029826D01*
X016978Y029785D01*
X016940Y029746D01*
X016900Y029710D01*
X016857Y029677D01*
X016812Y029647D01*
X016765Y029621D01*
X016717Y029598D01*
X016666Y029579D01*
X016615Y029563D01*
X016562Y029551D01*
X016509Y029543D01*
X016455Y029539D01*
X016401Y029539D01*
X016347Y029543D01*
X016294Y029551D01*
X016241Y029563D01*
X016190Y029579D01*
X016139Y029598D01*
X016091Y029621D01*
X016044Y029647D01*
X015999Y029677D01*
X015956Y029710D01*
X015916Y029746D01*
X015878Y029785D01*
X015844Y029826D01*
X015813Y029870D01*
X015784Y029916D01*
X015760Y029964D01*
X015739Y030013D01*
X015721Y030064D01*
X015708Y030117D01*
X015698Y030170D01*
X015692Y030223D01*
X015690Y030277D01*
X021596Y030277D02*
X021598Y030331D01*
X021604Y030384D01*
X021614Y030437D01*
X021627Y030490D01*
X021645Y030541D01*
X021666Y030590D01*
X021690Y030638D01*
X021719Y030684D01*
X021750Y030728D01*
X021784Y030769D01*
X021822Y030808D01*
X021862Y030844D01*
X021905Y030877D01*
X021950Y030907D01*
X021997Y030933D01*
X022045Y030956D01*
X022096Y030975D01*
X022147Y030991D01*
X022200Y031003D01*
X022253Y031011D01*
X022307Y031015D01*
X022361Y031015D01*
X022415Y031011D01*
X022468Y031003D01*
X022521Y030991D01*
X022572Y030975D01*
X022623Y030956D01*
X022671Y030933D01*
X022718Y030907D01*
X022763Y030877D01*
X022806Y030844D01*
X022846Y030808D01*
X022884Y030769D01*
X022918Y030728D01*
X022949Y030684D01*
X022978Y030638D01*
X023002Y030590D01*
X023023Y030541D01*
X023041Y030490D01*
X023054Y030437D01*
X023064Y030384D01*
X023070Y030331D01*
X023072Y030277D01*
X023070Y030223D01*
X023064Y030170D01*
X023054Y030117D01*
X023041Y030064D01*
X023023Y030013D01*
X023002Y029964D01*
X022978Y029916D01*
X022949Y029870D01*
X022918Y029826D01*
X022884Y029785D01*
X022846Y029746D01*
X022806Y029710D01*
X022763Y029677D01*
X022718Y029647D01*
X022671Y029621D01*
X022623Y029598D01*
X022572Y029579D01*
X022521Y029563D01*
X022468Y029551D01*
X022415Y029543D01*
X022361Y029539D01*
X022307Y029539D01*
X022253Y029543D01*
X022200Y029551D01*
X022147Y029563D01*
X022096Y029579D01*
X022045Y029598D01*
X021997Y029621D01*
X021950Y029647D01*
X021905Y029677D01*
X021862Y029710D01*
X021822Y029746D01*
X021784Y029785D01*
X021750Y029826D01*
X021719Y029870D01*
X021690Y029916D01*
X021666Y029964D01*
X021645Y030013D01*
X021627Y030064D01*
X021614Y030117D01*
X021604Y030170D01*
X021598Y030223D01*
X021596Y030277D01*
X027501Y030277D02*
X027503Y030331D01*
X027509Y030384D01*
X027519Y030437D01*
X027532Y030490D01*
X027550Y030541D01*
X027571Y030590D01*
X027595Y030638D01*
X027624Y030684D01*
X027655Y030728D01*
X027689Y030769D01*
X027727Y030808D01*
X027767Y030844D01*
X027810Y030877D01*
X027855Y030907D01*
X027902Y030933D01*
X027950Y030956D01*
X028001Y030975D01*
X028052Y030991D01*
X028105Y031003D01*
X028158Y031011D01*
X028212Y031015D01*
X028266Y031015D01*
X028320Y031011D01*
X028373Y031003D01*
X028426Y030991D01*
X028477Y030975D01*
X028528Y030956D01*
X028576Y030933D01*
X028623Y030907D01*
X028668Y030877D01*
X028711Y030844D01*
X028751Y030808D01*
X028789Y030769D01*
X028823Y030728D01*
X028854Y030684D01*
X028883Y030638D01*
X028907Y030590D01*
X028928Y030541D01*
X028946Y030490D01*
X028959Y030437D01*
X028969Y030384D01*
X028975Y030331D01*
X028977Y030277D01*
X028975Y030223D01*
X028969Y030170D01*
X028959Y030117D01*
X028946Y030064D01*
X028928Y030013D01*
X028907Y029964D01*
X028883Y029916D01*
X028854Y029870D01*
X028823Y029826D01*
X028789Y029785D01*
X028751Y029746D01*
X028711Y029710D01*
X028668Y029677D01*
X028623Y029647D01*
X028576Y029621D01*
X028528Y029598D01*
X028477Y029579D01*
X028426Y029563D01*
X028373Y029551D01*
X028320Y029543D01*
X028266Y029539D01*
X028212Y029539D01*
X028158Y029543D01*
X028105Y029551D01*
X028052Y029563D01*
X028001Y029579D01*
X027950Y029598D01*
X027902Y029621D01*
X027855Y029647D01*
X027810Y029677D01*
X027767Y029710D01*
X027727Y029746D01*
X027689Y029785D01*
X027655Y029826D01*
X027624Y029870D01*
X027595Y029916D01*
X027571Y029964D01*
X027550Y030013D01*
X027532Y030064D01*
X027519Y030117D01*
X027509Y030170D01*
X027503Y030223D01*
X027501Y030277D01*
X061015Y030208D02*
X061017Y030260D01*
X061023Y030312D01*
X061033Y030363D01*
X061046Y030413D01*
X061064Y030463D01*
X061085Y030510D01*
X061109Y030556D01*
X061138Y030600D01*
X061169Y030642D01*
X061203Y030681D01*
X061240Y030718D01*
X061280Y030751D01*
X061323Y030782D01*
X061367Y030809D01*
X061413Y030833D01*
X061462Y030853D01*
X061511Y030869D01*
X061562Y030882D01*
X061613Y030891D01*
X061665Y030896D01*
X061717Y030897D01*
X061769Y030894D01*
X061821Y030887D01*
X061872Y030876D01*
X061922Y030862D01*
X061971Y030843D01*
X062018Y030821D01*
X062063Y030796D01*
X062107Y030767D01*
X062148Y030735D01*
X062187Y030700D01*
X062222Y030662D01*
X062255Y030621D01*
X062285Y030579D01*
X062311Y030534D01*
X062334Y030487D01*
X062353Y030438D01*
X062369Y030388D01*
X062381Y030338D01*
X062389Y030286D01*
X062393Y030234D01*
X062393Y030182D01*
X062389Y030130D01*
X062381Y030078D01*
X062369Y030028D01*
X062353Y029978D01*
X062334Y029929D01*
X062311Y029882D01*
X062285Y029837D01*
X062255Y029795D01*
X062222Y029754D01*
X062187Y029716D01*
X062148Y029681D01*
X062107Y029649D01*
X062063Y029620D01*
X062018Y029595D01*
X061971Y029573D01*
X061922Y029554D01*
X061872Y029540D01*
X061821Y029529D01*
X061769Y029522D01*
X061717Y029519D01*
X061665Y029520D01*
X061613Y029525D01*
X061562Y029534D01*
X061511Y029547D01*
X061462Y029563D01*
X061413Y029583D01*
X061367Y029607D01*
X061323Y029634D01*
X061280Y029665D01*
X061240Y029698D01*
X061203Y029735D01*
X061169Y029774D01*
X061138Y029816D01*
X061109Y029860D01*
X061085Y029906D01*
X061064Y029953D01*
X061046Y030003D01*
X061033Y030053D01*
X061023Y030104D01*
X061017Y030156D01*
X061015Y030208D01*
X061015Y002649D02*
X061017Y002701D01*
X061023Y002753D01*
X061033Y002804D01*
X061046Y002854D01*
X061064Y002904D01*
X061085Y002951D01*
X061109Y002997D01*
X061138Y003041D01*
X061169Y003083D01*
X061203Y003122D01*
X061240Y003159D01*
X061280Y003192D01*
X061323Y003223D01*
X061367Y003250D01*
X061413Y003274D01*
X061462Y003294D01*
X061511Y003310D01*
X061562Y003323D01*
X061613Y003332D01*
X061665Y003337D01*
X061717Y003338D01*
X061769Y003335D01*
X061821Y003328D01*
X061872Y003317D01*
X061922Y003303D01*
X061971Y003284D01*
X062018Y003262D01*
X062063Y003237D01*
X062107Y003208D01*
X062148Y003176D01*
X062187Y003141D01*
X062222Y003103D01*
X062255Y003062D01*
X062285Y003020D01*
X062311Y002975D01*
X062334Y002928D01*
X062353Y002879D01*
X062369Y002829D01*
X062381Y002779D01*
X062389Y002727D01*
X062393Y002675D01*
X062393Y002623D01*
X062389Y002571D01*
X062381Y002519D01*
X062369Y002469D01*
X062353Y002419D01*
X062334Y002370D01*
X062311Y002323D01*
X062285Y002278D01*
X062255Y002236D01*
X062222Y002195D01*
X062187Y002157D01*
X062148Y002122D01*
X062107Y002090D01*
X062063Y002061D01*
X062018Y002036D01*
X061971Y002014D01*
X061922Y001995D01*
X061872Y001981D01*
X061821Y001970D01*
X061769Y001963D01*
X061717Y001960D01*
X061665Y001961D01*
X061613Y001966D01*
X061562Y001975D01*
X061511Y001988D01*
X061462Y002004D01*
X061413Y002024D01*
X061367Y002048D01*
X061323Y002075D01*
X061280Y002106D01*
X061240Y002139D01*
X061203Y002176D01*
X061169Y002215D01*
X061138Y002257D01*
X061109Y002301D01*
X061085Y002347D01*
X061064Y002394D01*
X061046Y002444D01*
X061033Y002494D01*
X061023Y002545D01*
X061017Y002597D01*
X061015Y002649D01*
D11*
X061704Y002649D03*
X061704Y030208D03*
X002649Y030208D03*
X002649Y002649D03*
D12*
X005208Y030601D03*
X012255Y030601D03*
D13*
X012680Y026938D02*
X012680Y026422D01*
X011680Y026422D02*
X011680Y026938D01*
X010680Y026938D02*
X010680Y026422D01*
X009680Y026422D02*
X009680Y026938D01*
X008680Y026938D02*
X008680Y026422D01*
X007680Y026422D02*
X007680Y026938D01*
X006680Y026938D02*
X006680Y026422D01*
X005680Y026422D02*
X005680Y026938D01*
X004680Y026938D02*
X004680Y026422D01*
X005422Y021180D02*
X005938Y021180D01*
X005938Y020180D02*
X005422Y020180D01*
X005422Y019180D02*
X005938Y019180D01*
X005938Y018180D02*
X005422Y018180D01*
X005422Y017180D02*
X005938Y017180D01*
X005938Y016180D02*
X005422Y016180D01*
X005422Y015180D02*
X005938Y015180D01*
X005938Y014180D02*
X005422Y014180D01*
X005422Y013180D02*
X005938Y013180D01*
X005938Y012180D02*
X005422Y012180D01*
X005422Y011180D02*
X005938Y011180D01*
X005938Y010180D02*
X005422Y010180D01*
X005422Y009180D02*
X005938Y009180D01*
X005938Y008180D02*
X005422Y008180D01*
X005422Y007180D02*
X005938Y007180D01*
X005938Y006180D02*
X005422Y006180D01*
X005422Y005180D02*
X005938Y005180D01*
X005938Y004180D02*
X005422Y004180D01*
X005422Y003180D02*
X005938Y003180D01*
X005938Y002180D02*
X005422Y002180D01*
X011422Y002180D02*
X011938Y002180D01*
X011938Y003180D02*
X011422Y003180D01*
X011422Y004180D02*
X011938Y004180D01*
X011938Y005180D02*
X011422Y005180D01*
X011422Y006180D02*
X011938Y006180D01*
X011938Y007180D02*
X011422Y007180D01*
X011422Y008180D02*
X011938Y008180D01*
X011938Y009180D02*
X011422Y009180D01*
X011422Y010180D02*
X011938Y010180D01*
X011938Y011180D02*
X011422Y011180D01*
X011422Y012180D02*
X011938Y012180D01*
X011938Y013180D02*
X011422Y013180D01*
X011422Y014180D02*
X011938Y014180D01*
X011938Y015180D02*
X011422Y015180D01*
X011422Y016180D02*
X011938Y016180D01*
X011938Y017180D02*
X011422Y017180D01*
X011422Y018180D02*
X011938Y018180D01*
X011938Y019180D02*
X011422Y019180D01*
X011422Y020180D02*
X011938Y020180D01*
X011938Y021180D02*
X011422Y021180D01*
D14*
X027180Y020936D02*
X027180Y020424D01*
X028180Y020424D02*
X028180Y020936D01*
X032180Y020936D02*
X032180Y020424D01*
X033180Y020424D02*
X033180Y020936D01*
X035180Y020936D02*
X035180Y020424D01*
X036180Y020424D02*
X036180Y020936D01*
X040180Y020936D02*
X040180Y020424D01*
X041180Y020424D02*
X041180Y020936D01*
X043180Y020936D02*
X043180Y020424D01*
X044180Y020424D02*
X044180Y020936D01*
X048180Y020936D02*
X048180Y020424D01*
X049180Y020424D02*
X049180Y020936D01*
X049180Y017936D02*
X049180Y017424D01*
X048180Y017424D02*
X048180Y017936D01*
X044180Y017936D02*
X044180Y017424D01*
X043180Y017424D02*
X043180Y017936D01*
X041180Y017936D02*
X041180Y017424D01*
X040180Y017424D02*
X040180Y017936D01*
X036180Y017936D02*
X036180Y017424D01*
X035180Y017424D02*
X035180Y017936D01*
X033180Y017936D02*
X033180Y017424D01*
X032180Y017424D02*
X032180Y017936D01*
X028180Y017936D02*
X028180Y017424D01*
X027180Y017424D02*
X027180Y017936D01*
X027180Y014936D02*
X027180Y014424D01*
X028180Y014424D02*
X028180Y014936D01*
X032180Y014936D02*
X032180Y014424D01*
X033180Y014424D02*
X033180Y014936D01*
X035180Y014936D02*
X035180Y014424D01*
X036180Y014424D02*
X036180Y014936D01*
X040180Y014936D02*
X040180Y014424D01*
X041180Y014424D02*
X041180Y014936D01*
X043180Y014936D02*
X043180Y014424D01*
X044180Y014424D02*
X044180Y014936D01*
X048180Y014936D02*
X048180Y014424D01*
X049180Y014424D02*
X049180Y014936D01*
X049180Y011936D02*
X049180Y011424D01*
X048180Y011424D02*
X048180Y011936D01*
X044180Y011936D02*
X044180Y011424D01*
X043180Y011424D02*
X043180Y011936D01*
X041180Y011936D02*
X041180Y011424D01*
X040180Y011424D02*
X040180Y011936D01*
X036180Y011936D02*
X036180Y011424D01*
X035180Y011424D02*
X035180Y011936D01*
X033180Y011936D02*
X033180Y011424D01*
X032180Y011424D02*
X032180Y011936D01*
X028180Y011936D02*
X028180Y011424D01*
X027180Y011424D02*
X027180Y011936D01*
X027180Y008936D02*
X027180Y008424D01*
X028180Y008424D02*
X028180Y008936D01*
X032180Y008936D02*
X032180Y008424D01*
X033180Y008424D02*
X033180Y008936D01*
X035180Y008936D02*
X035180Y008424D01*
X036180Y008424D02*
X036180Y008936D01*
X040180Y008936D02*
X040180Y008424D01*
X041180Y008424D02*
X041180Y008936D01*
X043180Y008936D02*
X043180Y008424D01*
X044180Y008424D02*
X044180Y008936D01*
X048180Y008936D02*
X048180Y008424D01*
X049180Y008424D02*
X049180Y008936D01*
X049180Y005936D02*
X049180Y005424D01*
X048180Y005424D02*
X048180Y005936D01*
X044180Y005936D02*
X044180Y005424D01*
X043180Y005424D02*
X043180Y005936D01*
X041180Y005936D02*
X041180Y005424D01*
X040180Y005424D02*
X040180Y005936D01*
X036180Y005936D02*
X036180Y005424D01*
X035180Y005424D02*
X035180Y005936D01*
X033180Y005936D02*
X033180Y005424D01*
X032180Y005424D02*
X032180Y005936D01*
X028180Y005936D02*
X028180Y005424D01*
X027180Y005424D02*
X027180Y005936D01*
D15*
X028180Y004574D03*
X032180Y004574D03*
X036180Y004574D03*
X040180Y004574D03*
X044180Y004574D03*
X048180Y004574D03*
X048180Y010180D03*
X044180Y010180D03*
X040180Y010180D03*
X036180Y010180D03*
X032180Y010180D03*
X028180Y010180D03*
X028180Y016180D03*
X032180Y016180D03*
X036180Y016180D03*
X040180Y016180D03*
X044180Y016180D03*
X048180Y016180D03*
X045180Y028930D03*
X041180Y028930D03*
D16*
X039023Y030930D02*
X037841Y030930D01*
X044337Y030930D02*
X045519Y030930D01*
X056182Y025680D02*
X057363Y025680D01*
X059182Y024680D02*
X060363Y024680D01*
X057363Y023680D02*
X056182Y023680D01*
X059182Y022680D02*
X060363Y022680D01*
X057363Y021680D02*
X056182Y021680D01*
X059182Y020680D02*
X060363Y020680D01*
X057363Y019680D02*
X056182Y019680D01*
X059182Y018680D02*
X060363Y018680D01*
X057363Y017680D02*
X056182Y017680D01*
X059182Y016680D02*
X060363Y016680D01*
X057363Y015680D02*
X056182Y015680D01*
X059182Y014680D02*
X060363Y014680D01*
X057363Y013680D02*
X056182Y013680D01*
X059182Y012680D02*
X060363Y012680D01*
X057363Y011680D02*
X056182Y011680D01*
X059182Y010680D02*
X060363Y010680D01*
X057363Y009680D02*
X056182Y009680D01*
X059182Y008680D02*
X060363Y008680D01*
X057363Y007680D02*
X056182Y007680D01*
X059182Y006680D02*
X060363Y006680D01*
X057363Y005680D02*
X056182Y005680D01*
X059182Y004680D02*
X060363Y004680D01*
X060363Y026680D02*
X059182Y026680D01*
X059182Y028680D02*
X060363Y028680D01*
D17*
X039680Y027180D03*
X035680Y027180D03*
X024180Y018180D03*
X024180Y016680D03*
X024180Y015180D03*
X024180Y013680D03*
X024180Y012180D03*
X024180Y010680D03*
X024180Y009180D03*
X024180Y007680D03*
X024180Y006180D03*
X024180Y004680D03*
X020180Y004680D03*
X020180Y006180D03*
X020180Y007680D03*
X020180Y009180D03*
X020180Y010680D03*
X020180Y012180D03*
X020180Y013680D03*
X020180Y015180D03*
X020180Y016680D03*
X020180Y018180D03*
X003680Y011041D03*
X003680Y009183D03*
D18*
X002180Y008967D03*
X002180Y004967D03*
X004343Y004553D03*
X014680Y004680D03*
X014680Y006180D03*
X014680Y007680D03*
X014680Y009180D03*
X014680Y010680D03*
X014680Y012180D03*
X014680Y013680D03*
X014680Y015180D03*
X014680Y016680D03*
X014680Y018180D03*
X018680Y018180D03*
X018680Y016680D03*
X018680Y015180D03*
X018680Y013680D03*
X018680Y012180D03*
X018680Y010680D03*
X018680Y009180D03*
X018680Y007680D03*
X018680Y006180D03*
X018680Y004680D03*
X003680Y018180D03*
X002180Y018180D03*
X002180Y022180D03*
X003680Y022180D03*
X006680Y028786D03*
X010680Y028786D03*
X031680Y022680D03*
X035680Y022680D03*
X037180Y022680D03*
X035680Y024180D03*
X035680Y025680D03*
X039680Y025680D03*
X039680Y024180D03*
X041180Y022680D03*
D19*
X003343Y004553D03*
D20*
X007430Y023680D03*
D21*
X008430Y023680D03*
X009430Y023680D03*
X009430Y024680D03*
X008430Y024680D03*
X007430Y024680D03*
D22*
X047930Y022099D02*
X048930Y022099D01*
X048930Y030958D02*
X047930Y030958D01*
D23*
X004581Y025316D02*
X003984Y025316D01*
X002376Y025316D02*
X001779Y025316D01*
X001779Y023544D02*
X002376Y023544D01*
X003984Y023544D02*
X004581Y023544D01*
D24*
X034680Y029180D03*
X043430Y027180D03*
X043430Y024180D03*
D25*
X043680Y022430D03*
X045680Y022430D03*
X033857Y025483D03*
X033357Y026233D03*
X032857Y025483D03*
X013180Y014680D03*
X013180Y013680D03*
X013180Y012180D03*
X013180Y011180D03*
X003680Y013180D03*
X003680Y014180D03*
X003680Y015680D03*
X003680Y016680D03*
X003680Y007180D03*
X003680Y006180D03*
X002592Y027018D03*
X002592Y028018D03*
D26*
X032680Y029180D03*
D27*
X025310Y020491D03*
X022254Y020393D03*
X019462Y020409D03*
X016680Y020430D03*
D28*
X015680Y020430D03*
X018462Y020409D03*
X021254Y020393D03*
X024310Y020491D03*
D29*
X038070Y028930D03*
X039290Y028930D03*
D30*
X051930Y026580D03*
X051930Y015080D03*
D31*
X029239Y022415D02*
X029239Y023052D01*
X028239Y023052D02*
X028239Y022415D01*
X027239Y022415D02*
X027239Y023052D01*
X023334Y023052D02*
X023334Y022415D01*
X022334Y022415D02*
X022334Y023052D01*
X021334Y023052D02*
X021334Y022415D01*
X017428Y022415D02*
X017428Y023052D01*
X016428Y023052D02*
X016428Y022415D01*
X015428Y022415D02*
X015428Y023052D01*
D32*
X016428Y030277D03*
X022334Y030277D03*
X028239Y030277D03*
D33*
X002180Y016680D03*
D34*
X014180Y019680D03*
X014180Y021180D03*
X054180Y029180D03*
X054180Y030680D03*
D35*
X049541Y026519D03*
X051165Y024180D03*
X061165Y019680D03*
X058665Y015680D03*
X053665Y014680D03*
X053665Y018680D03*
X038541Y021019D03*
X037268Y014896D03*
X026665Y010568D03*
X038230Y008918D03*
X052843Y005762D03*
X053665Y007180D03*
X053665Y010680D03*
X061609Y009279D03*
X013539Y004660D03*
X013539Y003160D03*
X010039Y009160D03*
X010671Y010692D03*
X010539Y017660D03*
X011426Y022974D03*
D36*
X025680Y024180D03*
X027549Y019831D03*
X033856Y024183D03*
X016167Y013687D03*
X049180Y006680D03*
D37*
X052680Y008180D03*
X053680Y008180D03*
X055680Y004180D03*
X053180Y003180D03*
X052180Y003680D03*
X051180Y003680D03*
X050180Y003180D03*
X051680Y001649D03*
X058180Y002680D03*
X061680Y011680D03*
X050680Y015180D03*
X050180Y016680D03*
X038680Y013180D03*
X023180Y011680D03*
M02*
